<?xml version="1.0" encoding="UTF-8" standalone="no"?>
<!-- Created with Inkscape (http://www.inkscape.org/) -->

<svg
   xmlns:dc="http://purl.org/dc/elements/1.1/"
   xmlns:cc="http://creativecommons.org/ns#"
   xmlns:rdf="http://www.w3.org/1999/02/22-rdf-syntax-ns#"
   xmlns:svg="http://www.w3.org/2000/svg"
   xmlns="http://www.w3.org/2000/svg"
   xmlns:sodipodi="http://sodipodi.sourceforge.net/DTD/sodipodi-0.dtd"
   xmlns:inkscape="http://www.inkscape.org/namespaces/inkscape"
   width="103.30783mm"
   height="106.52113mm"
   viewBox="0 0 103.30783 106.52113"
   version="1.1"
   id="svg8"
   inkscape:version="0.92.3 (2405546, 2018-03-11)"
   sodipodi:docname="usrc.svg">
  <defs
     id="defs2" />
  <sodipodi:namedview
     id="base"
     pagecolor="#ffffff"
     bordercolor="#666666"
     borderopacity="1.0"
     inkscape:pageopacity="0.0"
     inkscape:pageshadow="2"
     inkscape:zoom="1.4"
     inkscape:cx="103.11954"
     inkscape:cy="154.60894"
     inkscape:document-units="mm"
     inkscape:current-layer="layer1"
     showgrid="false"
     inkscape:window-width="1853"
     inkscape:window-height="1025"
     inkscape:window-x="67"
     inkscape:window-y="27"
     inkscape:window-maximized="1" />
  <metadata
     id="metadata5">
    <rdf:RDF>
      <cc:Work
         rdf:about="">
        <dc:format>image/svg+xml</dc:format>
        <dc:type
           rdf:resource="http://purl.org/dc/dcmitype/StillImage" />
        <dc:title></dc:title>
      </cc:Work>
    </rdf:RDF>
  </metadata>
  <g
     inkscape:label="Layer 1"
     inkscape:groupmode="layer"
     id="layer1"
     transform="translate(-6.0493066,-3.3501664)">
    <g
       id="g854"
       transform="translate(-61.204722,-27.528761)">
      <path
         style="fill:#b30202;stroke-width:0.26458332"
         d="m 110.89891,137.0047 c -1.69523,-0.88391 -2.18482,-1.60956 -2.66414,-3.94864 -0.36697,-1.79088 -1.6152,-5.14075 -3.30278,-8.8637 -1.6175,-3.56835 -1.67361,-5.7166 -0.26288,-10.0649 1.11118,-3.425 3.44359,-6.57308 5.63375,-7.60395 0.61855,-0.29113 1.35144,-0.78052 1.62865,-1.08754 0.48796,-0.5404 0.72145,-0.5582 7.32184,-0.5582 h 6.8178 l 0.77562,0.7276 c 0.42659,0.40018 1.31408,1.05482 1.9722,1.45474 3.76895,2.29035 6.71701,10.3162 5.46692,14.88329 -0.15932,0.58209 -0.97748,2.66568 -1.81812,4.63021 -0.84064,1.96453 -1.7329,4.46485 -1.9828,5.55625 -0.62334,2.72238 -0.85251,3.26296 -1.74623,4.1192 -1.09277,1.04694 -3.48734,1.23686 -4.86438,0.3858 -1.16126,-0.7177 -1.62555,-1.4812 -1.20724,-1.98524 0.16288,-0.19626 0.93885,-0.79948 1.72437,-1.34049 2.06629,-1.42311 2.30575,-2.08642 2.21463,-6.13458 -0.0675,-2.99952 -0.0263,-3.36431 0.40966,-3.62185 1.37094,-0.80996 2.74116,-2.20895 3.35359,-3.424 0.3771,-0.74817 0.89462,-1.75283 1.15005,-2.2326 0.29245,-0.54932 0.40157,-1.12268 0.29469,-1.54851 l -0.16971,-0.6762 -2.43554,0.17498 c -3.6784,0.26427 -7.10806,0.89394 -7.67787,1.40961 -0.59041,0.53431 -0.55665,0.95831 0.52525,6.59689 0.39697,2.06885 0.63377,3.84954 0.52623,3.95708 -0.3026,0.3026 -6.79341,0.45294 -7.08231,0.16404 -0.16008,-0.16008 -0.0607,-1.07417 0.27171,-2.49991 1.62152,-6.95425 1.6953,-7.95761 0.61655,-8.38488 -1.18584,-0.46969 -2.94784,-0.80945 -5.67811,-1.0949 -3.4299,-0.35858 -3.56687,-0.35019 -4.17287,0.25582 -0.43657,0.43656 -0.47794,0.64711 -0.24696,1.25677 0.15261,0.40279 0.49422,0.97047 0.75915,1.26151 0.26492,0.29104 0.72623,1.01669 1.02512,1.61255 0.62858,1.25313 2.13861,2.67069 3.10263,2.91264 0.6401,0.16066 0.65965,0.22565 0.49865,1.65747 -0.0922,0.81964 -0.18579,2.52428 -0.20806,3.78808 -0.0403,2.28792 -0.0365,2.30197 0.88556,3.26233 0.50932,0.53048 1.49159,1.38184 2.18281,1.8919 1.75045,1.29168 1.63044,2.01245 -0.51603,3.09938 -1.06455,0.53907 -2.10285,0.54304 -3.1214,0.012 z M 90.395426,121.9495 c -0.30479,-0.80165 -0.10983,-0.79386 -3.16758,-0.1265 -1.36347,0.29758 -3.14384,0.50594 -3.95637,0.46302 l -1.47733,-0.078 0.0898,-1.53187 c 0.10233,-1.74518 -0.20374,-2.30459 -1.26089,-2.30459 -0.90837,0 -3.18803,-1.13253 -3.98302,-1.97876 -0.53289,-0.56723 -0.55733,-0.6749 -0.18559,-0.81755 0.23546,-0.0904 0.95595,0.0373 1.60108,0.28368 1.32513,0.50607 2.54442,0.46368 6.64902,-0.23118 3.97859,-0.67353 5.18598,-1.10257 6.98964,-2.48375 1.60787,-1.23126 1.67453,-1.25473 3.56192,-1.25473 1.69899,0 2.03686,-0.0865 2.89609,-0.74128 1.26204,-0.96179 1.857884,-2.13432 1.863304,-3.66675 0.008,-2.40488 -2.022594,-4.26976 -5.039434,-4.62706 l -1.29878,-0.15382 -1.67539,-2.895307 -1.67539,-2.89532 0.47288,-1.048665 c 0.30807,-0.683157 0.47883,-1.725398 0.48994,-2.990234 0.0151,-1.717482 -0.0657,-2.050013 -0.69962,-2.881177 -2.05532,-2.69466 -6.25387,-2.11844 -7.65573,1.050689 -0.28438,0.642898 -0.71672,1.236141 -0.96074,1.318324 -1.46619,0.493776 -3.45931,1.535432 -4.1123,2.149194 -0.69918,0.657175 -3.79749,4.356139 -5.53241,6.604936 -0.40389,0.52353 -0.91546,1.57485 -1.13681,2.33627 -0.43482,1.49575 -0.98848,2.20356 -1.31296,1.67854 -0.4491,-0.72666 -0.44895,-3.63318 2.6e-4,-4.98562 0.53226,-1.602467 0.3844,-1.907447 -1.14723,-2.366334 -0.566545,-0.169743 -1.175055,-0.483306 -1.352255,-0.696809 -0.43091,-0.519221 0.19056,-1.508741 2.760255,-4.394983 1.08997,-1.224219 1.98519,-2.335544 1.9894,-2.469605 0.004,-0.134062 -0.17561,-0.446252 -0.3996,-0.693756 -0.37314,-0.412324 -0.29006,-0.555924 0.99219,-1.71486 1.75207,-1.583566 4.17497,-2.739084 6.49698,-3.098496 3.29936,-0.510694 7.56006,0.801587 10.47554,3.226422 1.39901,1.163574 1.78453,1.276948 2.28629,0.672356 0.18116,-0.218281 0.43215,-0.396875 0.55776,-0.396875 0.39665,0 1.78607,3.0479 2.24934,4.934263 0.52237,2.127001 0.68879,2.379945 1.89837,2.885339 0.88376,0.369258 0.90605,0.414608 0.74189,1.509335 -0.16393,1.093136 -0.12641,1.170146 1.19279,2.448286 1.671084,1.619067 3.728484,4.332187 3.529414,4.654297 -0.0806,0.13047 -0.38145,0.23723 -0.66848,0.23723 -0.76208,0 -0.85513,0.52607 -0.52794,2.98478 0.57299,4.30579 -0.91486,8.89736 -3.692294,11.3945 -1.26497,1.13732 -4.51744,2.90852 -5.88039,3.20228 -0.61056,0.1316 -0.77389,0.0471 -0.98564,-0.50983 z m 54.119964,-0.004 c -4.07439,-1.67491 -6.33695,-4.29516 -7.45475,-8.63324 -0.3417,-1.32611 -0.39954,-2.35584 -0.26978,-4.80336 l 0.16515,-3.11539 -0.65957,-0.30053 c -0.36277,-0.1653 -0.65958,-0.37231 -0.65958,-0.46003 0,-0.44453 2.12907,-3.22874 3.38335,-4.42444 1.38532,-1.320627 1.42556,-1.399447 1.33757,-2.61998 -0.0862,-1.19562 -0.0511,-1.271347 0.70304,-1.518206 1.19229,-0.390273 1.39339,-0.634177 1.6994,-2.06104 0.33631,-1.568144 1.80999,-5.466218 2.14475,-5.673107 0.13067,-0.08076 0.48005,0.09563 0.77641,0.391981 0.29635,0.296349 0.63029,0.538816 0.7421,0.538816 0.11181,0 0.79034,-0.485117 1.50786,-1.078037 3.01377,-2.490433 6.02118,-3.545018 9.61898,-3.373004 2.02799,0.09696 2.54193,0.232238 4.39153,1.155946 1.15211,0.575376 2.64019,1.539195 3.30685,2.141823 1.16961,1.05726 1.19588,1.113669 0.7491,1.608334 -0.25467,0.281956 -0.46303,0.597281 -0.46303,0.700722 0,0.103445 0.77278,1.010889 1.71729,2.016546 1.61374,1.71822 3.3098,4.058486 3.3098,4.566947 0,0.125039 -0.63881,0.509855 -1.41958,0.855146 -1.65635,0.732516 -1.87302,1.113666 -1.34775,2.370803 0.43915,1.05105 0.51169,4.04847 0.11241,4.64519 -0.22985,0.34351 -0.31824,0.32782 -0.6574,-0.11672 -0.21552,-0.28247 -0.39707,-0.75872 -0.40346,-1.05833 -0.0253,-1.18672 -0.78749,-2.5898 -2.40861,-4.433937 -0.93393,-1.0624 -2.16173,-2.513168 -2.72844,-3.223926 -1.17633,-1.475319 -2.81112,-2.597864 -4.69422,-3.223331 -1.1765,-0.390769 -1.35756,-0.562946 -1.91313,-1.819172 -0.82653,-1.86894 -1.9071,-2.61406 -3.97544,-2.741322 -1.34343,-0.08266 -1.74564,0.0013 -2.5185,0.526418 -2.01974,1.372018 -2.62292,3.470386 -1.69709,5.903862 0.22146,0.582084 0.46858,1.267976 0.54916,1.524207 0.0901,0.286583 -0.49396,1.584838 -1.51772,3.373434 -1.55138,2.710407 -1.71948,2.907577 -2.479,2.907777 -1.14273,2.6e-4 -3.8801,1.35563 -4.69576,2.32499 -1.62184,1.92745 -0.99565,5.02735 1.30246,6.44766 0.74214,0.45866 1.29509,0.57026 2.64176,0.53315 1.59453,-0.0439 1.77214,0.0121 2.78435,0.87853 1.6493,1.41173 2.96933,1.92376 6.14825,2.38482 1.60073,0.23217 3.32714,0.53447 3.83646,0.67178 1.25402,0.33809 2.92889,0.31641 4.32103,-0.0559 0.63449,-0.1697 1.38034,-0.21923 1.65744,-0.11006 0.81722,0.32194 -1.42443,2.15287 -3.29564,2.6918 -2.32115,0.66851 -2.28596,0.62968 -2.28596,2.52226 v 1.68684 l -1.083,0.0793 c -0.59565,0.0436 -2.25173,-0.16472 -3.68017,-0.46302 -3.22814,-0.67411 -3.58596,-0.67537 -3.75912,-0.0132 -0.18323,0.70066 -0.89918,0.66793 -2.8398,-0.12983 z M 87.085816,81.835038 c -2.11451,-0.251074 -5.25117,-1.256919 -6.86026,-2.19991 -1.35754,-0.795573 -2.87615,-2.463948 -5.44286,-5.979647 -1.09141,-1.49493 -2.72705,-3.384968 -3.63477,-4.200086 -2.40516,-2.159807 -2.952465,-3.831722 -1.91808,-5.859296 0.60508,-1.186056 1.4173,-1.803847 2.77375,-2.109777 1.13464,-0.255903 1.45541,0.162343 1.45766,1.900616 0.004,2.867284 0.85782,3.913129 4.90132,6.001541 l 2.37324,1.225749 0.0371,1.190625 c 0.0493,1.580732 0.52979,3.296301 1.04247,3.721791 0.22787,0.189118 0.65603,0.828066 0.95147,1.419883 1.15065,2.305011 2.37335,2.59219 3.17322,0.745305 0.29936,-0.691224 0.89524,-2.003396 1.32419,-2.915936 0.82892,-1.763469 1.80593,-4.439393 1.80593,-4.946269 0,-0.812565 -0.99678,-1.348909 -5.17123,-2.782536 -4.35371,-1.495189 -4.48452,-1.561475 -4.4337,-2.246577 0.0567,-0.763844 2.97761,-6.014321 3.28142,-5.89842 0.10159,0.03876 1.51649,1.256959 3.14423,2.707119 3.20793,2.857966 4.52392,3.845639 5.12396,3.845639 0.47228,0 2.49169,-2.077249 3.88869,-4.000068 0.56898,-0.783141 1.33471,-1.830015 1.70161,-2.326392 0.71673,-0.96964 0.87231,-2.174981 0.33637,-2.605947 -0.59227,-0.476269 -5.48803,-0.331489 -6.71273,0.198511 -0.59968,0.259517 -1.17226,0.604404 -1.27239,0.766413 -0.33499,0.542029 -0.88408,0.305716 -3.70382,-1.594006 -2.75401,-1.855441 -2.82646,-1.885812 -4.13019,-1.731407 -0.72985,0.08644 -2.05009,0.481669 -2.93387,0.878285 -2.09674,0.940964 -2.45188,0.743968 -2.55769,-1.418754 -0.0678,-1.38483 0.0101,-1.696514 0.59894,-2.396255 0.66887,-0.794909 2.59535,-1.64538 3.72709,-1.64538 0.32011,0 1.01507,0.18094 1.54435,0.40209 1.34713,0.562866 4.34809,1.103505 8.86487,1.597054 3.39635,0.371118 4.0394,0.521089 5.31867,1.240427 1.97195,1.108837 5.486304,4.706636 6.527314,6.682304 1.06591,2.022949 1.76852,4.708978 1.54434,5.90395 -0.0939,0.500367 -0.0393,1.226939 0.12129,1.614607 0.26801,0.647041 0.007,1.197647 -3.18018,6.713461 -1.909684,3.304733 -3.630714,6.008608 -3.824514,6.008608 -0.1938,0 -1.16551,0.405522 -2.15937,0.90116 -1.51409,0.755079 -4.64009,1.571922 -5.53284,1.445763 -0.13361,-0.01886 -1.07635,-0.133286 -2.095,-0.254238 z m 58.368544,-0.500102 c -1.07606,-0.291372 -2.34804,-0.828432 -2.82662,-1.193467 -0.47859,-0.365035 -1.11454,-0.663699 -1.41322,-0.663699 -0.64787,0 -0.87357,-0.3356 -4.76468,-7.084815 -2.42043,-4.198278 -2.89279,-5.189683 -2.67051,-5.604999 0.14851,-0.277511 0.27003,-1.208128 0.27003,-2.068039 0,-3.125971 1.45627,-6.026563 4.62127,-9.20467 2.97738,-2.989699 4.50747,-3.707088 9.00764,-4.223277 3.87644,-0.444645 6.59531,-0.957093 8.29863,-1.56411 3.31329,-1.180775 6.11829,0.504994 6.11829,3.677007 0,0.751033 -0.15723,1.580541 -0.34941,1.843357 -0.33206,0.454118 -0.44264,0.436923 -2.22716,-0.346305 -2.60186,-1.141965 -3.61033,-1.095306 -5.97622,0.276495 -1.04404,0.605356 -2.23481,1.379263 -2.64616,1.719792 -0.79909,0.661527 -1.49207,0.786879 -1.92985,0.349094 -0.14853,-0.148529 -0.86899,-0.488974 -1.60103,-0.756542 -2.13383,-0.779941 -6.67854,-0.368726 -7.06535,0.639289 -0.13158,0.342876 0.47991,1.294334 2.94225,4.578083 1.69743,2.263675 2.7848,3.410807 3.40775,3.595053 0.62034,0.183475 1.98341,-0.816068 5.81822,-4.266523 1.18085,-1.062493 2.26142,-1.931808 2.40128,-1.931808 0.45581,0 1.33576,1.146879 2.70582,3.526597 0.73967,1.284783 1.34486,2.419996 1.34486,2.522694 0,0.102698 -1.63711,0.70657 -3.63802,1.341938 -4.59194,1.458121 -6.10779,2.108216 -6.2956,2.699961 -0.25768,0.811851 1.98069,6.94113 3.23744,8.86503 0.85595,1.31033 1.95948,0.908632 2.90925,-1.058998 0.36126,-0.748419 0.9504,-1.896544 1.30921,-2.551388 0.5083,-0.927695 0.63481,-1.499087 0.57286,-2.587426 l -0.0795,-1.396799 3.03062,-1.513618 c 1.67541,-0.836766 3.24352,-1.809401 3.5067,-2.175074 0.43479,-0.604094 0.75143,-1.865175 1.14946,-4.577969 0.17379,-1.184431 0.61776,-1.429012 1.74583,-0.961753 2.11793,0.877277 2.79879,2.117228 2.47105,4.500174 -0.16459,1.19669 -0.37128,1.512057 -2.20617,3.366122 -1.11352,1.125149 -2.94782,3.29438 -4.07622,4.820513 -3.3029,4.467072 -3.74751,4.9198 -5.83004,5.936462 -3.77067,1.840796 -7.91562,2.382642 -11.27269,1.473618 z m -36.0927,-22.135149 c -0.0905,-0.09048 -0.0501,-0.378357 0.0898,-0.639723 0.42692,-0.79771 0.04,-1.204716 -1.8502,-1.946317 -0.99713,-0.39121 -2.35556,-1.070692 -3.01874,-1.509964 -1.78276,-1.180854 -3.84811,-3.57296 -4.769374,-5.523931 -0.75835,-1.605976 -0.81239,-1.921159 -0.81659,-4.762501 -0.005,-3.585467 0.31062,-4.654805 1.370834,-4.63996 0.64946,0.0091 0.76143,-0.179022 1.66171,-2.791743 0.99219,-2.879459 1.78103,-4.493071 2.27739,-4.658525 0.15538,-0.05179 0.80913,0.324447 1.45279,0.836087 0.64365,0.51164 1.25403,0.93141 1.3564,0.932823 0.10236,0.0014 0.69767,-0.515886 1.32291,-1.149551 1.21798,-1.234392 3.01972,-2.287465 3.9137,-2.287465 0.46642,0 0.50655,0.07935 0.26674,0.527423 -0.15524,0.290082 -0.76023,0.974692 -1.3444,1.521354 -0.88564,0.828759 -1.26186,1.543543 -2.26395,4.301224 -2.15501,5.930471 -2.25442,6.486544 -1.65728,9.270913 0.27637,1.288632 0.25656,1.39614 -0.38004,2.063544 -2.47306,2.592707 -1.08241,6.953231 2.42912,7.616716 1.76774,0.334005 4.14137,-0.948229 5.2596,-2.841246 l 0.45136,-0.764093 h 3.4233 3.42331 l 0.91665,1.070898 c 1.15134,1.345092 3.35378,2.627525 4.51808,2.630787 1.29878,0.0036 2.64328,-0.737121 3.51032,-1.934038 0.62851,-0.867635 0.763,-1.319118 0.763,-2.561397 0,-1.26491 -0.13158,-1.689749 -0.81597,-2.634517 -0.81146,-1.120196 -0.8143,-1.135994 -0.51355,-2.863033 0.38124,-2.189224 0.20803,-3.189221 -1.17862,-6.804457 -0.61421,-1.601344 -1.3331,-3.503495 -1.59756,-4.227 -0.26444,-0.723506 -0.99666,-1.866947 -1.62714,-2.540981 -1.2826,-1.371204 -1.52837,-2.244396 -0.55101,-1.957727 1.44722,0.424488 2.86957,1.290782 3.9972,2.434538 l 1.21697,1.234366 1.36892,-0.954109 c 0.7529,-0.524759 1.51662,-0.897426 1.69716,-0.828148 0.40853,0.156768 1.42143,2.440267 2.36944,5.341681 0.67654,2.07058 0.76234,2.200082 1.37948,2.082108 1.02863,-0.196635 1.48781,1.179651 1.48174,4.441237 -0.004,2.090647 -0.12803,2.964677 -0.5916,4.165341 -1.26454,3.275171 -4.45416,6.382695 -7.84927,7.647236 -2.07998,0.774708 -2.30193,0.969669 -2.1229,1.864792 l 0.14848,0.742423 h -1.53856 c -0.84621,0 -2.46962,-0.238125 -3.60758,-0.529167 -1.13797,-0.291041 -2.26965,-0.529166 -2.51486,-0.529166 -0.24521,0 -0.66134,0.238125 -0.92473,0.529166 -0.26339,0.291042 -0.6825,0.529167 -0.93137,0.529167 -0.24886,0 -0.7552,-0.238125 -1.1252,-0.529167 -0.82462,-0.648644 -0.95018,-0.649983 -3.39121,-0.03618 -2.24655,0.564907 -4.84293,0.90206 -5.08471,0.660278 z"
         id="path830"
         inkscape:connector-curvature="0"
         sodipodi:nodetypes="ccssccsccccsccscsccccccsccsscccccccccccsccccscccscccscsccscccccccccccscccccccsccssscccsscccccscccscccsccscssccscscccccccccscccccsccccccccscccccccscccsccccccccsscccscccscsccccscscccccscccccsccscscscccccccsccscssccsccccccccccccccccccccscccsscccccsscccccssccccsccccccsccsccscscscccc" />
      <path
         style="fill:#860101;stroke-width:0.26458332"
         d="m 110.89891,137.0047 c -1.69523,-0.88391 -2.18482,-1.60956 -2.66414,-3.94864 -0.36697,-1.79088 -1.6152,-5.14075 -3.30278,-8.8637 -1.6175,-3.56835 -1.67361,-5.7166 -0.26288,-10.0649 1.11118,-3.425 3.44359,-6.57308 5.63375,-7.60395 0.61855,-0.29113 1.35144,-0.78052 1.62865,-1.08754 0.48796,-0.5404 0.72145,-0.5582 7.32184,-0.5582 h 6.8178 l 0.77562,0.7276 c 0.42659,0.40018 1.31408,1.05482 1.9722,1.45474 3.76895,2.29035 6.71701,10.3162 5.46692,14.88329 -0.15932,0.58209 -0.97748,2.66568 -1.81812,4.63021 -0.84064,1.96453 -1.7329,4.46485 -1.9828,5.55625 -0.62334,2.72238 -0.85251,3.26296 -1.74623,4.1192 -1.09277,1.04694 -3.48734,1.23686 -4.86438,0.3858 -1.16126,-0.7177 -1.62555,-1.4812 -1.20724,-1.98524 0.16288,-0.19626 0.93885,-0.79948 1.72437,-1.34049 2.06629,-1.42311 2.30575,-2.08642 2.21463,-6.13458 -0.0675,-2.99952 -0.0263,-3.36431 0.40966,-3.62185 1.37094,-0.80996 2.74116,-2.20895 3.35359,-3.424 0.3771,-0.74817 0.89462,-1.75283 1.15005,-2.2326 0.29245,-0.54932 0.40157,-1.12268 0.29469,-1.54851 l -0.16971,-0.6762 -2.43554,0.17498 c -3.6784,0.26427 -7.10806,0.89394 -7.67787,1.40961 -0.59041,0.53431 -0.55665,0.95831 0.52525,6.59689 0.39697,2.06885 0.63377,3.84954 0.52623,3.95708 -0.3026,0.3026 -6.79341,0.45294 -7.08231,0.16404 -0.16008,-0.16008 -0.0607,-1.07417 0.27171,-2.49991 1.62152,-6.95425 1.6953,-7.95761 0.61655,-8.38488 -1.18584,-0.46969 -2.94784,-0.80945 -5.67811,-1.0949 -3.4299,-0.35858 -3.56687,-0.35019 -4.17287,0.25582 -0.43657,0.43656 -0.47794,0.64711 -0.24696,1.25677 0.15261,0.40279 0.49422,0.97047 0.75915,1.26151 0.26492,0.29104 0.72623,1.01669 1.02512,1.61255 0.62858,1.25313 2.13861,2.67069 3.10263,2.91264 0.6401,0.16066 0.65965,0.22565 0.49865,1.65747 -0.0922,0.81964 -0.18579,2.52428 -0.20806,3.78808 -0.0403,2.28792 -0.0365,2.30197 0.88556,3.26233 0.50932,0.53048 1.49159,1.38184 2.18281,1.8919 1.75045,1.29168 1.63044,2.01245 -0.51603,3.09938 -1.06455,0.53907 -2.10285,0.54304 -3.1214,0.012 z M 87.153196,81.84623 c -2.18396,-0.254323 -4.90612,-1.119828 -6.70929,-2.133209 -1.59364,-0.895622 -2.96009,-2.357736 -5.66121,-6.05754 -1.09141,-1.49493 -2.72705,-3.384968 -3.63477,-4.200086 -2.40516,-2.159807 -2.952465,-3.831722 -1.91808,-5.859296 0.60644,-1.18872 1.41739,-1.803871 2.78454,-2.112211 0.85728,-0.193347 0.97156,-0.151263 1.1966,0.440616 0.13683,0.35991 0.24945,1.093113 0.25027,1.629344 0.004,2.685229 0.92408,3.780446 4.90132,5.834631 l 2.37324,1.225749 0.0371,1.190625 c 0.0493,1.580732 0.52979,3.296301 1.04247,3.721791 0.22787,0.189118 0.65603,0.828066 0.95147,1.419883 1.15065,2.305011 2.37335,2.59219 3.17322,0.745305 0.29936,-0.691224 0.89524,-2.003396 1.32419,-2.915936 0.82892,-1.763469 1.80593,-4.439393 1.80593,-4.946269 0,-0.812565 -0.99678,-1.348909 -5.17123,-2.782536 -4.35371,-1.495189 -4.48452,-1.561475 -4.4337,-2.246577 0.0567,-0.763844 2.97761,-6.014321 3.28142,-5.89842 0.10159,0.03876 1.51649,1.256959 3.14423,2.707119 3.20793,2.857966 4.52392,3.845639 5.12396,3.845639 0.47228,0 2.49169,-2.077249 3.88869,-4.000068 0.56898,-0.783141 1.33471,-1.830015 1.70161,-2.326392 0.71706,-0.970097 0.87173,-2.171359 0.33637,-2.612557 -0.58221,-0.479811 -5.47847,-0.330811 -6.71273,0.20428 -0.59968,0.259979 -1.17226,0.605245 -1.27239,0.767254 -0.33499,0.542029 -0.88408,0.305716 -3.70382,-1.594006 -2.75401,-1.855441 -2.82646,-1.885812 -4.13019,-1.731407 -0.72985,0.08644 -2.05009,0.481669 -2.93387,0.878285 -2.09674,0.940964 -2.45188,0.743968 -2.55769,-1.418754 -0.0678,-1.38483 0.0101,-1.696514 0.59894,-2.396255 0.66887,-0.794909 2.59535,-1.64538 3.72709,-1.64538 0.32011,0 1.01507,0.18094 1.54435,0.40209 1.34713,0.562866 4.34809,1.103505 8.86487,1.597054 3.39635,0.371118 4.0394,0.521089 5.31867,1.240427 1.97195,1.108837 5.486304,4.706636 6.527314,6.682304 1.08464,2.058482 1.75876,4.672963 1.53951,5.970723 -0.0993,0.587491 -0.0421,1.238493 0.13833,1.575644 0.27207,0.508352 -0.0837,1.259811 -3.08894,6.524594 -1.868034,3.272538 -3.575014,6.009111 -3.793294,6.081273 -0.21829,0.07216 -1.23032,0.526283 -2.24896,1.009163 -1.5621,0.740498 -4.72218,1.548207 -5.57792,1.425705 -0.13361,-0.01913 -1.04603,-0.128294 -2.02762,-0.242599 z m 58.301164,-0.511294 c -1.07606,-0.291372 -2.34804,-0.828432 -2.82662,-1.193467 -0.47859,-0.365035 -1.10165,-0.663699 -1.38458,-0.663699 -0.28293,0 -0.63616,-0.148828 -0.78495,-0.330729 -0.1488,-0.181901 -1.77296,-2.923972 -3.60926,-6.093492 -2.75224,-4.750454 -3.29138,-5.851245 -3.06916,-6.266461 0.14826,-0.277032 0.26957,-1.20726 0.26957,-2.067171 0,-3.125971 1.45627,-6.026563 4.62127,-9.20467 2.97738,-2.989699 4.50747,-3.707088 9.00764,-4.223277 3.87644,-0.444645 6.59531,-0.957093 8.29863,-1.56411 3.31329,-1.180775 6.11829,0.504994 6.11829,3.677007 0,0.751033 -0.15723,1.580541 -0.34941,1.843357 -0.33206,0.454118 -0.44264,0.436923 -2.22716,-0.346305 -2.60186,-1.141965 -3.61033,-1.095306 -5.97622,0.276495 -1.04404,0.605356 -2.23481,1.379263 -2.64616,1.719792 -0.93791,0.776444 -1.00067,0.774009 -2.79759,-0.108458 -1.33406,-0.655159 -1.71868,-0.720342 -3.86283,-0.654659 -2.47834,0.07592 -3.70183,0.385215 -3.93581,0.994958 -0.13158,0.342876 0.47991,1.294334 2.94225,4.578083 1.69743,2.263675 2.7848,3.410807 3.40775,3.595053 0.62034,0.183475 1.98341,-0.816068 5.81822,-4.266523 1.18085,-1.062493 2.26142,-1.931808 2.40128,-1.931808 0.45581,0 1.33576,1.146879 2.70582,3.526597 0.73967,1.284783 1.34486,2.419996 1.34486,2.522694 0,0.102698 -1.63711,0.70657 -3.63802,1.341938 -4.59194,1.458121 -6.10779,2.108216 -6.2956,2.699961 -0.25768,0.811851 1.98069,6.94113 3.23744,8.86503 0.85595,1.31033 1.95948,0.908632 2.90925,-1.058998 0.36126,-0.748419 0.95217,-1.896544 1.31314,-2.551388 0.52611,-0.954447 0.63536,-1.466921 0.55077,-2.583503 l -0.10552,-1.392878 2.16868,-1.054518 c 1.19277,-0.579985 2.27691,-1.054518 2.4092,-1.054518 0.13228,0 0.68166,-0.36363 1.22084,-0.808069 1.03742,-0.855128 1.78607,-2.69194 1.78607,-4.382103 0,-1.184874 0.43324,-2.218161 0.93004,-2.218161 0.58514,0 2.2958,0.909351 2.80898,1.493199 0.65891,0.749642 0.82999,1.600799 0.63518,3.160046 -0.16736,1.339456 -0.30338,1.549136 -2.36983,3.653142 -1.20575,1.22767 -3.07273,3.452525 -4.14884,4.944121 -2.87252,3.981599 -3.52554,4.639027 -5.62662,5.664603 -3.7488,1.829853 -7.90165,2.36982 -11.25099,1.462889 z"
         id="path828"
         inkscape:connector-curvature="0" />
    </g>
    <text
       xml:space="preserve"
       style="font-style:normal;font-weight:normal;font-size:10.58333302px;line-height:1.25;font-family:sans-serif;letter-spacing:0px;word-spacing:0px;fill:#800000;fill-opacity:1;stroke:none;stroke-width:0.26458332"
       x="38.053257"
       y="60.463211"
       id="text877"><tspan
         sodipodi:role="line"
         id="tspan875"
         x="38.053257"
         y="60.463211"
         style="fill:#800000;stroke-width:0.26458332">U.S.R.C</tspan></text>
  </g>
</svg>
